<svg width="38" height="38" viewBox="0 0 38 38" fill="none" xmlns="http://www.w3.org/2000/svg">
<path d="M30.9321 29.7911L22.8945 21.7473C24.8276 19.4284 25.7922 16.4534 25.5878 13.4413C25.3833 10.4292 24.0255 7.61194 21.7968 5.57549C19.568 3.53904 16.64 2.44024 13.6217 2.50767C10.6034 2.5751 7.72737 3.80357 5.59179 5.93752C3.45622 8.07147 2.22556 10.9466 2.15583 13.9648C2.0861 16.983 3.18267 19.9119 5.21741 22.1422C7.25216 24.3725 10.0684 25.7325 13.0804 25.9392C16.0923 26.146 19.068 25.1836 21.3884 23.2522L29.426 31.296L30.9321 29.7911ZM4.32019 14.251C4.32091 12.3558 4.88362 10.5034 5.93715 8.92793C6.99068 7.35251 8.48772 6.12488 10.239 5.40027C11.9902 4.67567 13.917 4.48664 15.7756 4.85709C17.6343 5.22754 19.3414 6.14083 20.681 7.48146C22.0206 8.8221 22.9326 10.5299 23.3016 12.3888C23.6707 14.2478 23.4802 16.1744 22.7542 17.9251C22.0283 19.6758 20.7995 21.1719 19.2233 22.2242C17.6471 23.2765 15.7942 23.8378 13.899 23.8371C11.3584 23.8333 8.92311 22.8219 7.12735 21.0248C5.33159 19.2277 4.32204 16.7916 4.32019 14.251Z" fill="#262825"/>
</svg>
