<svg width="132" height="88" viewBox="0 0 132 88" fill="none" xmlns="http://www.w3.org/2000/svg">
<path d="M45.9541 46.0969L45.9704 3.39972L59.7079 3.40495C67.2962 3.40785 73.443 9.83058 73.44 17.7498C73.4369 25.669 67.2836 32.087 59.697 32.0841L45.9594 32.0789" stroke="#262825" stroke-width="4.26972" stroke-linecap="round" stroke-linejoin="round"/>
<path d="M86.5164 46.1123L86.5327 3.41516L72.7952 3.40993C65.2069 3.40703 59.0552 9.82508 59.0522 17.7443C59.0492 25.6635 65.1977 32.0862 72.7843 32.0891L86.5218 32.0943" stroke="#262825" stroke-width="4.26972" stroke-linecap="round" stroke-linejoin="round"/>
<path d="M18.0102 70.4705C18.0098 71.602 17.7425 72.6693 17.2084 73.6725C16.6743 74.6757 15.82 75.4973 14.6456 76.1373C13.4712 76.756 11.966 77.0649 10.13 77.0642L6.09515 77.0627L6.09171 86.0932L2.4411 86.0918L2.44958 63.8359L10.1351 63.8388C11.843 63.8394 13.2839 64.1389 14.4578 64.7371C15.6531 65.3139 16.5388 66.1042 17.1148 67.1078C17.7122 68.1114 18.0107 69.2323 18.0102 70.4705ZM10.1312 74.0861C11.5188 74.0866 12.5544 73.7775 13.2377 73.1586C13.9211 72.5184 14.2631 71.6219 14.2635 70.4691C14.2644 68.0354 12.8879 66.818 10.1339 66.8169L6.09906 66.8154L6.09629 74.0846L10.1312 74.0861ZM34.9053 81.5569L25.5866 81.5533L23.9838 86.1L20.173 86.0985L28.1552 63.8136L32.3822 63.8152L40.3474 86.1062L36.5047 86.1047L34.9053 81.5569ZM33.8817 78.5784L30.267 68.2336L26.6125 78.5756L33.8817 78.5784ZM55.3747 86.1119L50.2544 77.2076L47.4684 77.2066L47.465 86.1089L43.8144 86.1075L43.8229 63.8516L51.5084 63.8545C53.2163 63.8552 54.6572 64.1546 55.8312 64.7528C57.0264 65.3511 57.9121 66.152 58.4881 67.1556C59.0855 68.1592 59.384 69.2801 59.3835 70.5183C59.3829 71.97 58.9555 73.2935 58.1011 74.4887C57.268 75.6625 55.9761 76.4626 54.2254 76.8889L59.7298 86.1136L55.3747 86.1119ZM47.4695 74.2925L51.5044 74.294C52.8707 74.2945 53.8956 73.9533 54.579 73.2705C55.2838 72.5876 55.6364 71.6697 55.6368 70.5169C55.6373 69.3641 55.296 68.4673 54.6131 67.8266C53.9302 67.1645 52.8949 66.8332 51.5073 66.8327L47.4724 66.8311L47.4695 74.2925ZM77.1535 63.8643L77.1523 66.8424L67.7056 66.8388L67.7031 73.4035L75.0684 73.4063L75.0672 76.3845L67.702 76.3817L67.6982 86.1166L64.0476 86.1152L64.0561 63.8593L77.1535 63.8643ZM84.1552 63.867L84.1498 78.0531C84.1492 79.7397 84.5864 81.0101 85.4613 81.8644C86.3576 82.7186 87.5957 83.1461 89.1755 83.1467C90.7766 83.1473 92.015 82.7208 92.8906 81.8672C93.7876 81.0136 94.2364 79.7435 94.237 78.057L94.2424 63.8708L97.8931 63.8722L97.8877 77.9943C97.887 79.8089 97.4915 81.3459 96.7011 82.6052C95.9107 83.8644 94.8536 84.8034 93.5297 85.422C92.2059 86.0406 90.7434 86.3496 89.1422 86.349C87.5411 86.3484 86.0788 86.0382 84.7555 85.4186C83.4534 84.799 82.4184 83.8593 81.6503 82.5994C80.8822 81.3396 80.4986 79.8023 80.4992 77.9877L80.5046 63.8656L84.1552 63.867ZM126.087 63.883L126.078 86.1389L122.428 86.1375L122.434 70.8946L115.639 86.1349L113.109 86.1339L106.294 70.8884L106.288 86.1313L102.638 86.1299L102.646 63.874L106.585 63.8755L114.392 81.331L122.18 63.8815L126.087 63.883Z" fill="#262825"/>
</svg>
